<?xml version="1.0" standalone="no"?>
<!DOCTYPE svg PUBLIC "-//W3C//DTD SVG 20010904//EN"
 "http://www.w3.org/TR/2001/REC-SVG-20010904/DTD/svg10.dtd">
<svg version="1.0" xmlns="http://www.w3.org/2000/svg"
 width="35.000000pt" height="59.000000pt" viewBox="0 0 35.000000 59.000000"
 preserveAspectRatio="xMidYMid meet">
<metadata>
Created by potrace 1.10, written by Peter Selinger 2001-2011
</metadata>
<g transform="translate(0.000000,59.000000) scale(0.100000,-0.100000)"
fill="#637bdb" stroke="none">
<path d="M142 558 c-7 -7 -12 -22 -12 -35 0 -13 -6 -23 -13 -23 -7 0 -28 -13
-46 -28 -28 -23 -34 -36 -38 -79 -5 -48 -3 -55 25 -82 17 -17 58 -43 92 -57
42 -19 60 -32 58 -43 -5 -25 -54 -25 -93 -1 -42 26 -54 23 -78 -19 -18 -31
-18 -31 8 -56 14 -15 38 -31 55 -36 21 -8 30 -18 32 -37 2 -22 9 -28 36 -30
39 -4 62 11 55 37 -3 13 2 21 14 25 40 13 76 63 80 113 4 42 1 53 -20 79 -14
17 -55 43 -91 58 -36 16 -66 34 -66 42 0 22 46 28 81 10 18 -9 38 -16 44 -16
15 0 45 43 45 64 0 19 -47 56 -73 56 -14 0 -18 5 -14 19 2 10 0 26 -5 35 -10
19 -59 21 -76 4z m60 -40 c-3 -22 2 -27 25 -33 15 -3 37 -12 47 -20 16 -12 18
-19 8 -40 -13 -28 -28 -31 -56 -10 -27 20 -59 19 -87 -4 -33 -27 -18 -48 63
-88 75 -36 98 -63 98 -111 0 -25 -9 -43 -34 -68 -19 -19 -42 -34 -51 -34 -14
0 -16 -6 -11 -30 5 -28 3 -30 -24 -30 -27 0 -30 3 -30 30 0 21 -5 30 -16 30
-18 0 -94 40 -94 49 0 3 9 16 18 29 l18 24 37 -22 c42 -25 95 -24 111 2 17 27
-2 49 -73 83 -35 17 -72 41 -82 54 -39 49 -14 124 51 151 24 10 30 19 30 42 0
26 3 29 28 26 23 -3 27 -7 24 -30z"/>
</g>
</svg>
