<?xml version="1.0" standalone="no"?>
<!DOCTYPE svg PUBLIC "-//W3C//DTD SVG 20010904//EN"
 "http://www.w3.org/TR/2001/REC-SVG-20010904/DTD/svg10.dtd">
<svg version="1.0" xmlns="http://www.w3.org/2000/svg"
 width="30.000000pt" height="54.000000pt" viewBox="0 0 30.000000 54.000000"
 preserveAspectRatio="xMidYMid meet">
<metadata>
Created by potrace 1.10, written by Peter Selinger 2001-2011
</metadata>
<g transform="translate(0.000000,54.000000) scale(0.100000,-0.100000)"
fill="#0f2b98" stroke="none">
<path d="M180 525 c0 -8 -12 -18 -27 -21 -48 -11 -72 -51 -73 -118 0 -57 0
-58 -25 -52 -20 5 -27 2 -37 -19 -17 -38 2 -74 36 -68 l25 5 3 -118 3 -118 38
-2 c21 0 41 4 45 10 3 6 5 57 3 114 -3 109 -5 106 51 102 21 -1 29 4 33 23 4
14 5 36 3 48 -3 21 -9 24 -43 24 -39 0 -40 1 -43 38 -4 48 11 67 54 67 37 0
40 8 28 69 -6 27 -10 31 -40 31 -23 0 -34 -5 -34 -15z"/>
</g>
</svg>
