<?xml version="1.0" standalone="no"?>
<!DOCTYPE svg PUBLIC "-//W3C//DTD SVG 20010904//EN"
 "http://www.w3.org/TR/2001/REC-SVG-20010904/DTD/svg10.dtd">
<svg version="1.0" xmlns="http://www.w3.org/2000/svg"
 width="51.000000pt" height="54.000000pt" viewBox="0 0 51.000000 54.000000"
 preserveAspectRatio="xMidYMid meet">
<metadata>
Created by potrace 1.10, written by Peter Selinger 2001-2011
</metadata>
<g transform="translate(0.000000,54.000000) scale(0.100000,-0.100000)"
fill="#224df2" stroke="none">
<path d="M147 520 c-3 -12 -14 -20 -26 -20 -11 0 -31 -15 -45 -33 -51 -67 -23
-156 55 -177 36 -10 40 -14 37 -38 -2 -22 -11 -28 -47 -39 -95 -27 -129 -103
-76 -168 24 -29 27 -30 113 -30 86 1 88 1 124 36 58 57 56 109 -7 170 -25 24
-45 51 -45 59 0 8 14 29 30 47 24 26 30 41 30 77 0 25 -4 48 -10 51 -19 12
-11 44 12 47 13 2 24 11 26 21 3 15 -6 17 -81 17 -76 0 -85 -2 -90 -20z m61
-55 c30 -47 31 -129 2 -145 -29 -16 -56 -4 -80 34 -26 43 -25 81 3 116 29 38
47 37 75 -5z m22 -287 c24 -17 30 -29 30 -59 0 -52 -20 -69 -83 -69 -38 0 -56
5 -74 22 -34 32 -31 75 7 96 16 9 30 20 30 25 0 16 62 6 90 -15z"/>
<path d="M378 353 c-2 -19 -10 -29 -28 -33 -31 -7 -35 -43 -5 -49 24 -4 35
-19 35 -48 0 -16 6 -23 20 -23 16 0 20 7 20 30 0 23 5 30 19 30 24 0 45 25 37
45 -3 8 -17 15 -31 15 -21 0 -25 5 -25 30 0 23 -5 30 -19 30 -14 0 -21 -8 -23
-27z"/>
</g>
</svg>
