<?xml version="1.0" standalone="no"?>
<!DOCTYPE svg PUBLIC "-//W3C//DTD SVG 20010904//EN"
 "http://www.w3.org/TR/2001/REC-SVG-20010904/DTD/svg10.dtd">
<svg version="1.0" xmlns="http://www.w3.org/2000/svg"
 width="66.000000pt" height="48.000000pt" viewBox="0 0 66.000000 48.000000"
 preserveAspectRatio="xMidYMid meet">
<metadata>
Created by potrace 1.10, written by Peter Selinger 2001-2011
</metadata>
<g transform="translate(0.000000,48.000000) scale(0.100000,-0.100000)"
fill="#637bdb" stroke="none">
<path d="M172 406 c-73 -23 -137 -47 -143 -53 -19 -19 -2 -41 36 -49 34 -6 36
-8 29 -38 -3 -17 -9 -35 -13 -41 -4 -5 -7 -50 -7 -100 l1 -90 45 0 45 0 -1 51
-1 50 40 -20 c30 -15 61 -20 121 -20 146 0 194 32 183 127 l-7 52 58 17 c122
37 111 55 -71 113 -78 25 -151 45 -162 44 -11 0 -80 -20 -153 -43z m301 -17
c73 -23 136 -45 140 -49 5 -4 -58 -28 -138 -54 l-147 -47 -80 27 c-106 35
-109 32 -103 -112 l4 -104 -28 0 -28 0 1 80 c1 43 5 82 9 86 4 4 7 20 7 35 0
15 5 31 10 34 19 12 10 21 -36 33 -26 7 -44 16 -40 20 9 9 256 90 279 91 11 1
78 -18 150 -40z m-76 -160 c37 12 74 25 81 27 9 4 12 -8 12 -45 0 -47 -3 -53
-31 -70 -41 -25 -130 -35 -198 -21 -73 14 -91 31 -91 90 l0 48 80 -25 79 -25
68 21z"/>
</g>
</svg>
