<?xml version="1.0" standalone="no"?>
<!DOCTYPE svg PUBLIC "-//W3C//DTD SVG 20010904//EN"
 "http://www.w3.org/TR/2001/REC-SVG-20010904/DTD/svg10.dtd">
<svg version="1.0" xmlns="http://www.w3.org/2000/svg"
 width="48.000000pt" height="48.000000pt" viewBox="0 0 48.000000 48.000000"
 preserveAspectRatio="xMidYMid meet">
<metadata>
Created by potrace 1.10, written by Peter Selinger 2001-2011
</metadata>
<g transform="translate(0.000000,48.000000) scale(0.100000,-0.100000)"
fill="#1893ca" stroke="none">
<path d="M14 416 c-3 -13 -3 -34 1 -46 6 -18 13 -21 48 -18 42 3 42 3 42 43 0
40 0 40 -42 43 -38 3 -43 0 -49 -22z"/>
<path d="M293 294 c-17 -12 -26 -13 -43 -4 -11 6 -35 10 -53 8 -26 -2 -32 -7
-31 -25 0 -13 1 -79 2 -148 l2 -125 40 0 40 0 0 84 c0 101 10 133 45 142 47
12 58 -11 56 -125 l-2 -101 46 0 45 0 0 123 c0 100 -3 126 -18 143 -35 44 -89
56 -129 28z"/>
<path d="M23 193 c4 -54 7 -119 7 -145 l0 -48 35 0 35 0 2 120 c1 66 2 130 2
143 1 19 -5 22 -43 25 l-44 3 6 -98z"/>
</g>
</svg>
