<?xml version="1.0" standalone="no"?>
<!DOCTYPE svg PUBLIC "-//W3C//DTD SVG 20010904//EN"
 "http://www.w3.org/TR/2001/REC-SVG-20010904/DTD/svg10.dtd">
<svg version="1.0" xmlns="http://www.w3.org/2000/svg"
 width="51.000000pt" height="52.000000pt" viewBox="0 0 51.000000 52.000000"
 preserveAspectRatio="xMidYMid meet">
<metadata>
Created by potrace 1.10, written by Peter Selinger 2001-2011
</metadata>
<g transform="translate(0.000000,52.000000) scale(0.100000,-0.100000)"
fill="#4851ca" stroke="none">
<path d="M196 475 c-3 -9 -6 -26 -6 -37 0 -19 -2 -20 -17 -6 -34 29 -42 28
-77 -3 -38 -33 -45 -59 -21 -79 23 -19 18 -28 -18 -32 -31 -3 -32 -4 -35 -56
-3 -53 1 -60 42 -66 24 -3 28 -12 11 -26 -23 -19 -18 -43 18 -78 37 -36 49
-39 67 -17 17 21 30 19 30 -4 0 -33 26 -49 71 -46 42 3 59 16 59 48 0 17 1 17
30 0 l30 -17 35 34 c39 38 43 55 19 81 -15 17 -14 18 17 27 31 7 34 12 37 51
4 49 -10 71 -44 71 -27 0 -31 12 -9 30 20 17 19 32 -6 64 -33 42 -53 49 -80
27 l-24 -19 -10 32 c-9 29 -14 31 -61 34 -40 2 -53 -1 -58 -13z m104 -34 c0
-37 17 -43 51 -20 26 18 26 18 53 -10 27 -28 27 -30 12 -54 -22 -33 -11 -57
25 -57 27 0 29 -3 29 -39 0 -36 -3 -40 -31 -46 -38 -9 -47 -30 -24 -56 18 -19
17 -20 -10 -49 -27 -28 -30 -29 -51 -15 -36 24 -52 19 -56 -17 -3 -30 -5 -31
-43 -31 -36 0 -40 2 -43 27 -4 34 -25 43 -56 23 -22 -15 -25 -14 -51 13 -28
29 -28 30 -10 49 23 26 14 47 -24 56 -28 6 -31 10 -31 45 0 35 3 39 30 45 39
9 44 19 24 50 -16 25 -16 27 11 55 l29 30 23 -21 c18 -18 25 -20 38 -9 8 7 15
23 15 36 0 22 4 24 45 24 43 0 45 -1 45 -29z"/>
<path d="M205 305 c-30 -30 -31 -54 -4 -89 29 -36 80 -36 109 1 55 70 -42 151
-105 88z m91 -20 c15 -23 15 -27 0 -50 -19 -29 -51 -32 -78 -8 -22 20 -23 41
-1 65 23 26 59 23 79 -7z"/>
</g>
</svg>
