<?xml version="1.0" standalone="no"?>
<!DOCTYPE svg PUBLIC "-//W3C//DTD SVG 20010904//EN"
 "http://www.w3.org/TR/2001/REC-SVG-20010904/DTD/svg10.dtd">
<svg version="1.0" xmlns="http://www.w3.org/2000/svg"
 width="51.000000pt" height="51.000000pt" viewBox="0 0 51.000000 51.000000"
 preserveAspectRatio="xMidYMid meet">
<metadata>
Created by potrace 1.10, written by Peter Selinger 2001-2011
</metadata>
<g transform="translate(0.000000,51.000000) scale(0.100000,-0.100000)"
fill="#4851ca" stroke="none">
<path d="M175 478 c-109 -38 -175 -166 -145 -278 14 -51 45 -100 64 -100 24 0
94 70 117 116 27 57 40 233 19 259 -14 17 -14 17 -55 3z m43 -110 c-5 -118
-23 -164 -84 -218 l-38 -33 -18 22 c-54 68 -47 181 15 257 27 32 94 73 121 74
5 0 7 -46 4 -102z"/>
<path d="M277 484 c-14 -14 -7 -180 9 -235 19 -62 99 -153 131 -147 25 5 61
74 68 133 7 55 -10 116 -45 166 -34 46 -143 102 -163 83z m98 -53 c76 -51 108
-145 80 -237 -22 -75 -35 -82 -80 -43 -61 54 -78 99 -83 218 l-4 103 23 -7
c13 -3 42 -19 64 -34z"/>
<path d="M220 174 c-13 -26 -37 -56 -52 -67 -38 -28 -36 -53 6 -67 53 -17 97
-18 149 -3 57 17 61 37 13 75 -19 15 -42 46 -52 68 -10 22 -23 40 -28 40 -6 0
-22 -21 -36 -46z m96 -71 c20 -19 33 -37 30 -41 -13 -12 -153 -15 -175 -3 -20
11 -19 13 18 46 21 20 44 49 51 66 l13 31 14 -33 c7 -17 29 -47 49 -66z"/>
</g>
</svg>
