<?xml version="1.0" standalone="no"?>
<!DOCTYPE svg PUBLIC "-//W3C//DTD SVG 20010904//EN"
 "http://www.w3.org/TR/2001/REC-SVG-20010904/DTD/svg10.dtd">
<svg version="1.0" xmlns="http://www.w3.org/2000/svg"
 width="54.000000pt" height="55.000000pt" viewBox="0 0 54.000000 55.000000"
 preserveAspectRatio="xMidYMid meet">
<metadata>
Created by potrace 1.10, written by Peter Selinger 2001-2011
</metadata>
<g transform="translate(0.000000,55.000000) scale(0.100000,-0.100000)"
fill="#667edb" stroke="none">
<path d="M367 504 c-33 -10 -65 -32 -107 -73 -56 -55 -62 -58 -110 -60 -28 0
-54 -3 -58 -5 -4 -3 -23 -34 -42 -70 l-35 -66 22 -22 c20 -20 25 -21 64 -9 41
12 43 12 72 -18 30 -29 30 -31 18 -71 -11 -37 -10 -44 5 -61 9 -10 23 -19 30
-19 21 0 134 70 135 83 4 84 10 101 60 154 27 29 59 72 69 95 20 46 29 126 16
146 -10 16 -80 14 -139 -4z m123 -56 c-8 -68 -30 -111 -91 -173 -49 -51 -49
-51 -58 -157 -1 -3 -26 -21 -57 -39 -48 -27 -58 -30 -70 -17 -12 12 -12 20 -1
53 l13 38 -42 39 c-42 39 -44 39 -80 28 -30 -10 -39 -10 -51 2 -12 13 -10 22
19 71 34 58 46 64 111 57 11 -1 43 22 75 53 79 75 120 94 198 96 l40 1 -6 -52z"/>
<path d="M384 425 c-4 -9 -2 -21 4 -27 15 -15 44 -1 40 19 -4 23 -36 29 -44 8z
m36 -9 c0 -3 -4 -8 -10 -11 -5 -3 -10 -1 -10 4 0 6 5 11 10 11 6 0 10 -2 10
-4z"/>
</g>
</svg>
