<?xml version="1.0" standalone="no"?>
<!DOCTYPE svg PUBLIC "-//W3C//DTD SVG 20010904//EN"
 "http://www.w3.org/TR/2001/REC-SVG-20010904/DTD/svg10.dtd">
<svg version="1.0" xmlns="http://www.w3.org/2000/svg"
 width="86.000000pt" height="65.000000pt" viewBox="0 0 86.000000 65.000000"
 preserveAspectRatio="xMidYMid meet">
<metadata>
Created by potrace 1.10, written by Peter Selinger 2001-2011
</metadata>
<g transform="translate(0.000000,65.000000) scale(0.100000,-0.100000)"
fill="#2b9fd2" stroke="none">
<path d="M278 613 c-72 -21 -138 -100 -153 -182 -3 -18 -22 -48 -45 -71 -91
-91 -73 -243 37 -311 37 -23 45 -24 293 -27 140 -2 270 -1 288 3 40 7 101 59
118 102 17 39 18 91 3 130 -11 31 -67 93 -83 93 -6 0 -11 22 -11 51 0 46 -4
54 -38 86 -35 32 -43 35 -90 31 -48 -3 -54 -1 -81 30 -58 66 -150 91 -238 65z
m145 -22 c33 -11 99 -72 109 -101 3 -10 9 -10 25 -1 38 20 88 13 117 -16 33
-33 41 -64 28 -103 -9 -24 -8 -30 3 -30 20 0 73 -48 90 -81 36 -69 4 -163 -68
-198 -40 -20 -60 -21 -290 -21 -259 0 -292 5 -341 48 -27 24 -56 91 -56 132 0
48 31 111 68 141 21 17 32 36 36 64 13 80 77 154 152 174 34 9 85 6 127 -8z"/>
<path d="M322 387 c-39 -40 -72 -76 -72 -80 0 -4 23 -7 50 -7 l50 0 0 -80 0
-80 50 0 50 0 0 80 0 80 50 0 c28 0 50 5 50 10 0 9 -133 142 -149 148 -3 1
-39 -31 -79 -71z m146 -10 l62 -63 -35 4 c-54 6 -65 -9 -65 -89 l0 -69 -30 0
-30 0 0 69 c0 80 -11 95 -65 89 l-35 -4 62 63 c34 35 65 63 68 63 3 0 34 -28
68 -63z"/>
</g>
</svg>
