<?xml version="1.0" standalone="no"?>
<!DOCTYPE svg PUBLIC "-//W3C//DTD SVG 20010904//EN"
 "http://www.w3.org/TR/2001/REC-SVG-20010904/DTD/svg10.dtd">
<svg version="1.0" xmlns="http://www.w3.org/2000/svg"
 width="55.000000pt" height="70.000000pt" viewBox="0 0 55.000000 70.000000"
 preserveAspectRatio="xMidYMid meet">
<metadata>
Created by potrace 1.10, written by Peter Selinger 2001-2011
</metadata>
<g transform="translate(0.000000,70.000000) scale(0.100000,-0.100000)"
fill="#3ca8e3" stroke="none">
<path d="M245 675 c-5 -2 -22 -6 -37 -9 -35 -8 -94 -59 -115 -100 -9 -18 -18
-67 -21 -118 -4 -66 -8 -88 -19 -88 -24 0 -33 -48 -33 -176 0 -175 -16 -164
253 -164 195 0 215 2 230 18 14 15 17 42 17 160 0 180 9 172 -187 172 l-143 0
0 70 c0 62 3 74 25 95 32 33 78 33 110 0 14 -13 25 -35 25 -48 0 -49 69 -76
104 -41 43 42 -14 167 -94 209 -27 13 -98 26 -115 20z m113 -42 c46 -22 85
-83 86 -136 1 -40 0 -42 -31 -45 -28 -3 -33 0 -39 25 -13 58 -17 65 -47 84
-48 29 -83 25 -123 -15 -33 -33 -34 -36 -34 -115 l0 -81 153 0 c106 0 157 -4
165 -12 17 -17 17 -269 0 -286 -19 -19 -422 -17 -437 2 -8 9 -11 57 -9 147 3
128 4 134 25 144 21 9 23 17 23 75 0 86 15 135 53 176 57 62 134 75 215 37z"/>
</g>
</svg>
