<?xml version="1.0" standalone="no"?>
<!DOCTYPE svg PUBLIC "-//W3C//DTD SVG 20010904//EN"
 "http://www.w3.org/TR/2001/REC-SVG-20010904/DTD/svg10.dtd">
<svg version="1.0" xmlns="http://www.w3.org/2000/svg"
 width="73.000000pt" height="71.000000pt" viewBox="0 0 73.000000 71.000000"
 preserveAspectRatio="xMidYMid meet">
<metadata>
Created by potrace 1.10, written by Peter Selinger 2001-2011
</metadata>
<g transform="translate(0.000000,71.000000) scale(0.100000,-0.100000)"
fill="#2b9fd2" stroke="none">
<path d="M412 674 c-12 -8 -25 -35 -31 -65 -8 -37 -25 -67 -59 -108 -26 -31
-51 -58 -56 -60 -5 -2 -16 -11 -25 -20 -14 -14 -19 -15 -30 -4 -8 8 -38 13
-86 13 -106 0 -105 1 -105 -179 0 -101 4 -151 12 -159 15 -15 174 -16 183 -2
4 7 11 7 18 2 7 -5 56 -21 110 -37 78 -21 114 -26 174 -23 70 3 77 6 104 36
16 18 29 42 29 53 0 11 5 29 10 40 10 18 18 58 24 124 2 17 8 46 15 66 24 73
-26 129 -115 129 -53 0 -53 0 -44 26 6 14 10 45 10 69 0 35 -6 51 -27 74 -32
35 -82 46 -111 25z m65 -13 c7 -1 21 -11 33 -23 24 -26 27 -83 5 -135 -8 -19
-15 -37 -15 -39 0 -2 31 -4 69 -4 65 0 71 -2 95 -31 30 -35 30 -38 14 -76 -6
-15 -12 -44 -14 -63 -5 -70 -14 -114 -24 -124 -5 -5 -10 -21 -10 -35 0 -15 -9
-37 -20 -51 -18 -24 -24 -25 -117 -25 -78 1 -112 6 -168 26 -38 13 -76 28 -82
32 -9 6 -13 46 -13 142 0 134 0 135 26 151 48 32 133 142 140 182 8 50 29 81
51 77 10 -2 23 -4 30 -4z m-272 -406 l0 -150 -80 0 -80 0 -3 140 c-1 76 0 145
3 152 3 10 25 13 82 11 l78 -3 0 -150z"/>
<path d="M94 185 c-10 -24 12 -42 34 -29 24 16 21 38 -6 42 -13 2 -25 -3 -28
-13z m31 -5 c3 -5 1 -10 -4 -10 -6 0 -11 5 -11 10 0 6 2 10 4 10 3 0 8 -4 11
-10z"/>
</g>
</svg>
