<?xml version="1.0" standalone="no"?>
<!DOCTYPE svg PUBLIC "-//W3C//DTD SVG 20010904//EN"
 "http://www.w3.org/TR/2001/REC-SVG-20010904/DTD/svg10.dtd">
<svg version="1.0" xmlns="http://www.w3.org/2000/svg"
 width="75.000000pt" height="65.000000pt" viewBox="0 0 75.000000 65.000000"
 preserveAspectRatio="xMidYMid meet">
<metadata>
Created by potrace 1.10, written by Peter Selinger 2001-2011
</metadata>
<g transform="translate(0.000000,65.000000) scale(0.100000,-0.100000)"
fill="#3ca8e3" stroke="none">
<path d="M292 614 c-114 -26 -213 -109 -252 -211 -40 -107 -9 -264 54 -271 17
-2 43 -19 66 -43 20 -21 44 -39 52 -39 9 0 18 -7 22 -15 7 -18 57 -20 74 -3
17 17 17 259 0 276 -16 16 -53 15 -68 -3 -6 -8 -22 -17 -33 -21 -12 -3 -32
-16 -44 -27 l-23 -20 0 54 c0 67 28 120 88 166 154 117 382 17 382 -168 l0
-52 -22 20 c-13 11 -33 24 -45 27 -11 4 -27 13 -33 21 -15 18 -52 19 -68 3
-17 -17 -17 -259 0 -276 17 -17 67 -15 74 3 4 8 13 15 22 15 8 0 32 18 52 39
23 24 49 41 66 43 38 4 62 53 71 140 20 219 -204 395 -435 342z m211 -34 c76
-29 140 -88 178 -166 29 -59 31 -70 26 -132 -9 -101 -22 -132 -58 -132 -22 0
-40 -11 -68 -40 -21 -23 -47 -40 -59 -40 -13 0 -22 -6 -22 -15 0 -9 -9 -15
-25 -15 l-26 0 3 128 c3 123 4 127 26 130 15 2 22 -2 22 -12 0 -9 8 -16 19
-16 11 0 33 -11 49 -25 17 -14 34 -25 40 -25 28 0 30 107 3 166 -35 76 -145
144 -235 144 -93 0 -202 -66 -237 -144 -23 -52 -26 -154 -4 -162 8 -3 29 6 46
20 17 14 39 26 50 26 11 0 19 7 19 16 0 10 7 14 23 12 21 -3 22 -7 25 -130 l3
-128 -26 0 c-16 0 -25 6 -25 15 0 9 -9 15 -21 15 -12 0 -37 17 -57 37 -22 22
-49 39 -67 41 -36 4 -41 12 -55 75 -22 106 -1 190 70 271 89 101 248 136 383
86z"/>
</g>
</svg>
