<?xml version="1.0" standalone="no"?>
<!DOCTYPE svg PUBLIC "-//W3C//DTD SVG 20010904//EN"
 "http://www.w3.org/TR/2001/REC-SVG-20010904/DTD/svg10.dtd">
<svg version="1.0" xmlns="http://www.w3.org/2000/svg"
 width="49.000000pt" height="50.000000pt" viewBox="0 0 49.000000 50.000000"
 preserveAspectRatio="xMidYMid meet">
<metadata>
Created by potrace 1.10, written by Peter Selinger 2001-2011
</metadata>
<g transform="translate(0.000000,50.000000) scale(0.100000,-0.100000)"
fill="#ca4b4b" stroke="none">
<path d="M139 442 c-77 -40 -114 -102 -114 -191 1 -112 56 -186 161 -217 154
-44 302 86 280 246 -21 152 -188 235 -327 162z m202 -15 c26 -14 57 -42 74
-68 26 -38 30 -53 30 -109 0 -76 -19 -116 -78 -164 -34 -27 -47 -31 -110 -34
-86 -4 -125 13 -174 76 -76 99 -42 246 69 301 59 29 132 28 189 -2z"/>
<path d="M165 387 c-45 -25 -85 -92 -85 -142 0 -41 38 -105 79 -132 40 -27
117 -31 161 -8 43 22 79 76 86 126 11 91 -68 179 -161 179 -23 0 -57 -10 -80
-23z m156 -21 c90 -61 88 -180 -4 -236 -62 -38 -152 -17 -192 44 -82 124 74
275 196 192z"/>
<path d="M242 358 c-5 -5 -7 -29 -4 -54 l5 -44 -37 0 c-41 0 -56 -20 -36 -46
10 -11 28 -14 64 -12 l51 3 3 76 c3 69 1 77 -17 82 -11 2 -24 0 -29 -5z m28
-73 l0 -65 -45 0 c-25 0 -45 5 -45 10 0 6 16 10 35 10 l35 0 0 55 c0 30 5 55
10 55 6 0 10 -28 10 -65z"/>
</g>
</svg>
