<?xml version="1.0" standalone="no"?>
<!DOCTYPE svg PUBLIC "-//W3C//DTD SVG 20010904//EN"
 "http://www.w3.org/TR/2001/REC-SVG-20010904/DTD/svg10.dtd">
<svg version="1.0" xmlns="http://www.w3.org/2000/svg"
 width="48.000000pt" height="45.000000pt" viewBox="0 0 48.000000 45.000000"
 preserveAspectRatio="xMidYMid meet">
<metadata>
Created by potrace 1.10, written by Peter Selinger 2001-2011
</metadata>
<g transform="translate(0.000000,45.000000) scale(0.100000,-0.100000)"
fill="#e79209" stroke="none">
<path d="M264 387 c-20 -18 -27 -34 -28 -63 -2 -34 -5 -39 -28 -42 -24 -3 -81
26 -99 51 -13 18 -73 56 -80 51 -13 -8 -10 -56 5 -83 10 -18 11 -30 3 -42 -8
-12 -5 -24 11 -47 12 -16 22 -37 22 -46 0 -9 16 -26 35 -37 19 -12 35 -25 35
-30 0 -13 -45 -29 -81 -29 -35 0 -36 -6 -7 -32 20 -17 32 -18 98 -13 41 4 79
11 84 16 6 5 18 9 28 9 25 0 101 78 127 129 12 23 21 59 21 84 0 27 6 49 15
57 8 7 15 23 15 36 0 19 -5 24 -27 24 -16 0 -37 7 -47 15 -29 22 -71 18 -102
-8z m76 -99 c0 -13 -7 -32 -15 -42 -8 -11 -15 -29 -15 -40 -1 -26 -16 -45 -58
-75 -44 -31 -73 -25 -95 22 -24 51 -25 77 -5 90 13 9 21 7 37 -7 17 -15 23
-16 36 -6 8 7 15 17 15 23 0 18 53 56 78 57 16 0 22 -6 22 -22z"/>
</g>
</svg>
